<?xml version="1.0" encoding="UTF-8" standalone="no"?>
<svg
   xmlns:dc="http://purl.org/dc/elements/1.1/"
   xmlns:cc="http://creativecommons.org/ns#"
   xmlns:rdf="http://www.w3.org/1999/02/22-rdf-syntax-ns#"
   xmlns:svg="http://www.w3.org/2000/svg"
   xmlns="http://www.w3.org/2000/svg"
   viewBox="0 0 793.33331 1122.6667"
   height="1122.6667"
   width="793.33331"
   xml:space="preserve"
   id="svg2"
   version="1.1"><metadata
     id="metadata8"><rdf:RDF><cc:Work
         rdf:about=""><dc:format>image/svg+xml</dc:format><dc:type
           rdf:resource="http://purl.org/dc/dcmitype/StillImage" /></cc:Work></rdf:RDF></metadata><defs
     id="defs6"><clipPath
       id="clipPath20"
       clipPathUnits="userSpaceOnUse"><path
         id="path18"
         d="M 0,1283 H 1294 V 0 H 0 Z" /></clipPath><pattern
       id="pattern128"
       height="128.286"
       width="129.359"
       y="0"
       x="0"
       patternUnits="userSpaceOnUse"
       patternTransform="matrix(10,0,0,10,-1234,1183)"><g
         id="g126"
         transform="scale(0.1)"><g
           id="g124"><g
             id="g122"
             clip-path="url(#clipPath20)"><path
               id="path22"
               style="fill:#ffffff;fill-opacity:1;fill-rule:nonzero;stroke:none"
               d="M 0,-9.59375 C 0.078125,8.72656 0.078125,29.543 0,48.1172 L 0,-9.59375" /><path
               id="path24"
               style="fill:#2c3892;fill-opacity:1;fill-rule:nonzero;stroke:none"
               d="m 117.512,-625.816 c 0.562,21.468 2.254,42.738 5.066,63.796 2.625,19.547 6.203,38.879 10.762,58.008 4.39,18.461 9.699,36.715 15.883,54.739 4.429,12.839 9.3,25.578 14.629,38.171 3.582,8.469 7.347,16.86 11.3,25.122 9.305,19.437 19.629,38.273 30.93,56.484 l 0,0.023 c 23.914,38.504 52.238,74.196 84.75,106.707 46.102,46.102 98.59,83.793 156.43,112.391 10.468,5.16 21.105,10.031 31.906,14.6094 9.117,3.8515 18.316,7.4726 27.578,10.8633 l 0.02,0 c 21.48,7.8476 43.332,14.4023 65.5,19.6679 20.5,4.8906 41.269,8.6602 62.273,11.3047 19.418,2.4531 39.043,3.9531 58.816,4.4727 5.454,0.1445 10.926,0.2304 16.422,0.2304 2.789,0 5.555,-0.0625 8.325,-0.1054 l 0,1.25 c -1.168,1.1601 -1.895,2.7617 -1.895,4.539 L 716.211,0 c 0,1.77734 0.727,3.38672 1.891,4.55469 l 0,2.09375 -72.489,0 c -0.109,-0.86328 -0.199,-1.73047 -0.316,-2.59375 -20.168,-1.97656 -40.168,-4.890628 -59.961,-8.74219 0.59,3.765625 1.09,7.55078 1.598,11.33594 l -56.973,0 c -1.309,-8.72266 -2.844,-17.39844 -4.629,-26.00784 -17.422,-5.164 -34.633,-11.0742 -51.637,-17.7344 3.727,14.3946 6.672,28.98833 8.856,43.74224 l -57.141,0 C 420.93,-19.5469 413.656,-44.9961 403.723,-69.332 347.633,-99.3438 296.43,-137.371 250.934,-182.867 c -30.618,-30.617 -57.84,-63.813 -81.504,-99.34 -34.403,-10.281 -70.4925,-15.508 -107.3948,-15.301 -1.0196,0 -1.8516,-0.808 -1.8516,-1.808 l -0.543,-52.739 c -0.0195,-1.019 0.8125,-1.875 1.8321,-1.875 23.3515,-0.144 46.4333,1.582 69.1403,5.184 -6.703,-13.195 -12.925,-26.664 -18.73,-40.379 -1.27,-2.996 -2.52,-5.992 -3.727,-9.012 -18.9372,-2.058 -38.0857,-2.996 -57.3787,-2.789 -0.6523,0.008 -1.3046,0.028 -1.9531,0.039 l 0,-56.437 c 0.4649,-0.004 0.9219,-0.02 1.3906,-0.024 12.5508,-0.125 25.0586,0.164 37.4844,0.895 -5.1406,-17.172 -9.5117,-34.531 -13.1758,-52.055 -7.4921,-0.187 -14.9843,-0.25 -22.5195,-0.168 -1.0625,0.012 -2.1211,0.039 -3.1797,0.063 l 0,-56.434 c 0.8633,-0.019 1.7305,-0.043 2.5977,-0.051 4.6406,-0.043 9.2812,-0.043 13.9219,0 -2.3946,-20.336 -3.8086,-40.855 -4.2852,-61.543 l 0.5273,0 c 0.0039,0.274 0.0079,0.551 0.0118,0.825 l 55.9143,0" /><path
               id="path26"
               style="fill:#2c3892;fill-opacity:1;fill-rule:nonzero;stroke:none"
               d="M 770.582,3.15625 C 754.781,4.83594 738.867,5.92969 722.855,6.45703 721,6.51563 719.313,5.77344 718.102,4.55469 l 0,-52.63669 c 1.117,-1.1133 2.64,-1.8282 4.339,-1.8868 19.633,-0.6914 39.098,-2.3359 58.391,-4.914 19.543,-2.625 38.879,-6.207 58.004,-10.7656 18.461,-4.3907 36.715,-9.6993 54.738,-15.8829 12.84,-4.4335 25.578,-9.3046 38.168,-14.6328 8.473,-3.582 16.86,-7.3479 25.121,-11.3049 19.438,-9.304 38.274,-19.629 56.487,-30.929 l 0.02,0 c 38.5,-23.918 74.19,-52.247 106.7,-84.758 46.1,-46.102 83.79,-98.598 112.38,-156.438 5.16,-10.469 10.03,-21.101 14.61,-31.906 3.85,-9.117 7.47,-18.316 10.86,-27.578 l 0,-0.02 c 7.85,-21.48 14.41,-43.336 19.67,-65.5 4.89,-20.5 8.66,-41.273 11.3,-62.273 2.45,-19.418 3.95,-39.043 4.47,-58.817 0.14,-5.453 0.23,-10.925 0.23,-16.421 0,-0.61 -0.01,-1.219 -0.01,-1.829 -0.01,-1.476 0.49,-2.824 1.31,-3.917 l 53.8,0 c 0.8,1.062 1.3,2.367 1.31,3.8 0.01,0.649 0.01,1.293 0.01,1.942 0,3.851 3.34,6.82 7.17,6.414 0.59,-0.063 1.18,-0.11 1.76,-0.168 l 0,56.773 c -2.33,0.266 -4.68,0.508 -7.01,0.801 -2.08,2.145 -3.49,3.594 -5.58,5.738 -1.63,15.461 -3.82,30.825 -6.57,46.067 -0.77,4.328 2.87,8.113 7.23,7.508 3.97,-0.551 7.95,-1.055 11.93,-1.516 l 0,56.875 c -10.64,1.383 -21.21,3.098 -31.69,5.183 -2.33,0.465 -4.21,2.196 -4.89,4.469 -3.73,12.297 -7.83,24.492 -12.3,36.582 -1.78,4.805 2.49,9.621 7.48,8.485 13.65,-3.114 27.46,-5.532 41.4,-7.274 l 0,56.93 c -28.75,4.152 -56.67,11.652 -83.28,22.316 -1.12,1.008 -2.14,1.926 -3.27,2.934 -29.83,55.289 -67.48,105.793 -112.42,150.734 -30.05,30.063 -62.6,56.852 -97.39,80.215 -1.25,0.84 -2.18,2.086 -2.6,3.5353 -9.85,33.7304 -14.84,69.0547 -14.63,105.15623 0,0.37891 -0.14,0.71094 -0.33,1.00391 l -56.008,0 c -0.035,-0.14453 -0.09,-0.28125 -0.09,-0.4375 -0.121,-19.24614 1.031,-38.30864 3.453,-57.12894 0.652,-5.0742 -4.551,-8.8476 -9.156,-6.6211 -9.696,4.6836 -19.528,9.1211 -29.492,13.3438 -3,1.2695 -5.997,2.5195 -9.012,3.7265 l 0,0 c -1.695,15.5743 -2.586,31.29302 -2.746,47.11724 l -56.438,0 c 0.055,-5.910159 0.172,-11.8125 0.414,-17.69144 0.184,-4.3554 -3.953,-7.6484 -8.148,-6.457 -12.727,3.6094 -25.551,6.8008 -38.469,9.60547 -2.918,0.63672 -5.043,3.17187 -5.094,6.16015 -0.046,2.79297 -0.074,5.58594 -0.086,8.38282 l -57.128,0 c -1.168,-2.30078 -3.668,-3.78906 -6.438,-3.49219" /><path
               id="path28"
               style="fill:#231f20;fill-opacity:1;fill-rule:nonzero;stroke:none"
               d="m 716.211,0 -0.004,-43.543 c 0,-1.7773 0.727,-3.3789 1.895,-4.539 l 0,52.63669 C 716.938,3.38672 716.211,1.77734 716.211,0" /><path
               id="path30"
               style="fill:#2c3892;fill-opacity:1;fill-rule:nonzero;stroke:none"
               d="m -523.004,3.15625 c -15.801,1.67969 -31.715,2.77344 -47.73,3.30078 -1.852,0.0586 -3.539,-0.68359 -4.75,-1.90234 l 0,-52.63669 c 1.117,-1.1133 2.64,-1.8282 4.339,-1.8868 19.633,-0.6914 39.094,-2.3359 58.387,-4.914 19.543,-2.625 38.879,-6.207 58.008,-10.7656 18.461,-4.3907 36.711,-9.6993 54.734,-15.8829 12.844,-4.4335 25.582,-9.3046 38.172,-14.6328 8.473,-3.582 16.86,-7.3479 25.121,-11.3049 19.438,-9.304 38.274,-19.629 56.485,-30.929 l 0.019,0 c 38.504,-23.918 74.196,-52.247 106.703,-84.758 46.098,-46.102 83.7894,-98.598 112.3832,-156.438 5.1601,-10.469 10.0312,-21.101 14.6094,-31.906 3.8476,-9.117 7.4687,-18.316 10.8632,-27.578 l 0,-0.02 c 7.8438,-21.48 14.3985,-43.336 19.6641,-65.5 4.8867,-20.5 8.65626,-41.273 11.29688,-62.273 2.45313,-19.418 3.953126,-39.043 4.472657,-58.817 C -0.0820313,-631.141 0,-636.613 0,-642.109 c 0,-0.61 -0.00390625,-1.219 -0.0078125,-1.829 -0.0117188,-1.476 0.4882815,-2.824 1.3125025,-3.917 l 53.79691,0 c 0.8047,1.062 1.3007,2.367 1.3125,3.8 0.0078,0.649 0.0078,1.293 0.0078,1.942 0,3.851 3.3437,6.82 7.1719,6.414 0.5898,-0.063 1.1757,-0.11 1.7656,-0.168 l 0,56.773 c -2.3399,0.266 -4.6836,0.508 -7.0156,0.801 -2.0821,2.145 -3.4922,3.594 -5.5782,5.738 -1.6367,15.461 -3.8281,30.825 -6.5703,46.067 -0.7773,4.328 2.8711,8.113 7.2266,7.508 3.9687,-0.551 7.9492,-1.055 11.9375,-1.516 l 0,56.875 c -10.6446,1.383 -21.2149,3.098 -31.6992,5.183 -2.3321,0.465 -4.2032,2.196 -4.8907,4.469 -3.7265,12.297 -7.8242,24.492 -12.2968,36.582 -1.7774,4.805 2.4882,9.621 7.4804,8.485 13.6446,-3.114 27.4571,-5.532 41.4063,-7.274 l 0,56.93 c -28.7578,4.152 -56.6719,11.652 -83.2852,22.316 -1.1211,1.008 -2.1445,1.926 -3.2656,2.934 -29.8359,55.289 -67.4844,105.793 -112.4216,150.734 -30.059,30.063 -62.602,56.852 -97.399,80.215 -1.25,0.84 -2.176,2.086 -2.597,3.5353 -9.844,33.7304 -14.836,69.0547 -14.633,105.15623 0,0.37891 -0.137,0.71094 -0.328,1.00391 l -56.004,0 c -0.035,-0.14453 -0.09,-0.28125 -0.09,-0.4375 -0.121,-19.24614 1.027,-38.30864 3.453,-57.12894 0.652,-5.0742 -4.551,-8.8476 -9.156,-6.6211 -9.696,4.6836 -19.528,9.1211 -29.496,13.3438 -2.996,1.2695 -5.992,2.5195 -9.012,3.7265 l 0,0 c -1.691,15.5743 -2.582,31.29302 -2.742,47.11724 l -56.438,0 c 0.055,-5.910159 0.168,-11.8125 0.414,-17.69144 0.184,-4.3554 -3.957,-7.6484 -8.152,-6.457 -12.723,3.6094 -25.547,6.8008 -38.465,9.60547 -2.918,0.63672 -5.043,3.17187 -5.094,6.16015 -0.046,2.79297 -0.074,5.58594 -0.086,8.38282 l -57.128,0 c -1.168,-2.30078 -3.672,-3.78906 -6.438,-3.49219" /><path
               id="path32"
               style="fill:#2c3892;fill-opacity:1;fill-rule:nonzero;stroke:none"
               d="m 694.574,409.039 c -61.726,3.863 -119.23,29.723 -163.359,73.852 -47.953,47.953 -74.367,111.726 -74.367,179.554 0,2.739 0.062,5.473 0.144,8.207 -0.035,-0.543 -0.082,-1.089 -0.113,-1.636 l -56.375,0 c -0.055,-2.192 -0.102,-4.379 -0.102,-6.571 0,-82.898 32.301,-160.843 90.911,-219.453 55.05,-55.051 127.128,-86.871 204.363,-90.535 l 0,0.906 c -0.367,0.008 -0.735,0.004 -1.106,0.016 l 0.004,55.66" /><path
               id="path34"
               style="fill:#2c3892;fill-opacity:1;fill-rule:nonzero;stroke:none"
               d="m 515.465,663.004 c 0,-103.836 80.523,-189.191 182.402,-196.934 l 0,0.203 c -0.547,0.02 -1.105,0.012 -1.652,0.04 l 0,56.507 c 0.551,-0.035 1.101,-0.05 1.652,-0.082 l 0,0.004 c -70.722,7.559 -125.98,67.559 -125.98,140.262 0,2.016 0.066,4.016 0.16,6.012 l -55.871,0 c 0.058,0.769 0.16,1.523 0.226,2.293 l -0.754,0 c -0.125,-2.75 -0.183,-5.516 -0.183,-8.305" /><path
               id="path36"
               style="fill:#231f20;fill-opacity:1;fill-rule:nonzero;stroke:none"
               d="m 295.945,664.344 c 0.071,1.562 0.157,3.125 0.239,4.687 -0.192,-0.726 -0.321,-1.472 -0.305,-2.261 0.016,-0.809 0.047,-1.618 0.066,-2.426" /><path
               id="path38"
               style="fill:#00adef;fill-opacity:1;fill-rule:nonzero;stroke:none"
               d="m 687.84,187.738 c -22.422,1.035 -44.57,3.617 -66.383,7.739 -21.937,4.097 -43.539,9.761 -64.727,16.961 -11.011,3.726 -21.894,7.867 -32.656,12.425 -12.469,5.285 -24.644,11.051 -36.547,17.297 l -0.023,0 c -42.602,22.438 -81.461,51.074 -115.887,85.5 -43.308,43.313 -77.465,93.617 -101.566,149.563 -0.414,0.957 -0.832,1.933 -1.246,2.914 -7.774,18.394 -14.364,37.136 -19.735,56.195 -1.933,6.844 5.11,12.719 11.485,9.566 24.726,-12.214 48.472,-26.089 71.144,-41.558 21.168,-47.973 50.762,-91.16 88.059,-128.457 28.496,-28.492 60.465,-52.512 95.344,-71.68 0,0 0,-0.019 0.023,-0.019 12.676,-6.973 25.723,-13.301 39.148,-18.985 13.215,-5.597 26.641,-10.488 40.254,-14.652 l 0,-0.02 c 32.645,-10.043 66.356,-16.031 100.754,-17.91 1.117,-0.058 2.188,0.117 3.18,0.465 -1.301,-0.012 -2.594,-0.051 -3.895,-0.051 l 0.004,56.16 c -48.816,3.196 -95.773,15.899 -138.715,37.262 -35.152,17.485 -67.621,40.75 -96.199,69.328 -36.34,36.34 -64.101,78.965 -82.293,125.442 -15.25,38.879 -23.746,80.48 -24.953,123.304 -0.062,-1.257 -0.148,-2.511 -0.199,-3.773 l -56.16,0 c 0.648,-19.563 2.609,-38.914 5.894,-57.984 1.137,-6.602 -5.754,-11.614 -11.734,-8.594 -10.957,5.531 -22.098,10.758 -33.418,15.687 -6.203,2.7 -12.445,5.293 -18.707,7.793 -2.859,1.141 -4.859,3.774 -5.125,6.836 -1.215,14.012 -1.828,28.125 -1.828,42.336 0,0.027 0,0.055 0,0.082 0,0.735 -0.125,1.43 -0.305,2.106 l -55.848,0 c -0.16,-0.629 -0.273,-1.282 -0.273,-1.961 0,-0.078 0,-0.153 0,-0.227 0,-9.238 0.227,-18.437 0.695,-27.594 0.008,-0.171 0.024,-0.339 0.039,-0.507 l 6.543,-60.489 c 0.02,-0.172 0.043,-0.347 0.071,-0.519 3.703,-22.246 8.828,-44.18 15.359,-65.762 5.473,-18.191 11.969,-36.152 19.418,-53.801 3.039,-7.203 6.246,-14.32 9.598,-21.332 14.566,-30.722 31.965,-59.797 52.031,-87.082 0.019,0 0.019,0 0.019,-0.019 16.047,-21.856 33.801,-42.524 53.239,-61.961 9.574,-9.574 19.441,-18.735 29.617,-27.496 0.023,0 0.023,0 0.023,-0.02 25.684,-22.125 53.219,-41.668 82.481,-58.465 l 0.019,0 c 18.735,-10.758 38.172,-20.394 58.235,-28.886 4.789,-2.02 9.597,-3.977 14.426,-5.848 l 0.019,0 c 19.336,-7.559 39.024,-13.902 58.984,-19.086 19.793,-5.164 39.856,-9.18 60.172,-12.012 17.032,-2.379 34.215,-3.929 51.543,-4.676 3.129,-0.132 5.864,1.563 7.321,4.098 l 0.004,48.274 c -1.36,2.339 -3.829,3.96 -6.723,4.093" /><path
               id="path40"
               style="fill:#231f20;fill-opacity:1;fill-rule:nonzero;stroke:none"
               d="m 45.5703,774.309 c -1.039,0.043 -1.8906,-0.789 -1.8906,-1.832 l -0.543,-52.719 c -0.0195,-1 0.793,-1.832 1.7891,-1.871 1.3008,-0.028 2.5976,-0.051 3.8984,-0.078 l 0,56.437 c -1.0859,0.024 -2.1679,0.043 -3.2539,0.063" /><path
               id="path42"
               style="fill:#231f20;fill-opacity:1;fill-rule:nonzero;stroke:none"
               d="m 61.5859,656.215 55.8941,0 c 0.008,0.277 0.028,0.551 0.032,0.828 l -55.9143,0 c -0.0039,-0.273 -0.0039,-0.551 -0.0118,-0.828" /><path
               id="path44"
               style="fill:#2c3892;fill-opacity:1;fill-rule:nonzero;stroke:none"
               d="m 400.527,670.75 56.465,0 c 0,-0.031 0,-0.062 0,-0.098 3.977,61.528 29.809,118.825 73.813,162.828 47.953,47.954 111.726,74.364 179.554,74.364 2.77,0 5.536,-0.063 8.305,-0.145 l 0,0.805 c -0.359,0.023 -0.715,0.055 -1.074,0.074 l 0.004,55.602 c -2.41,0.062 -4.824,0.109 -7.235,0.109 -82.898,0 -160.843,-32.301 -219.453,-90.91 -55.051,-55.051 -86.871,-127.125 -90.535,-204.363 l 0.133,0 c 0.012,0.578 0.008,1.156 0.023,1.734" /><path
               id="path46"
               style="fill:#231f20;fill-opacity:1;fill-rule:nonzero;stroke:none"
               d="m 456.992,670.652 c 0,0.036 0,0.067 0,0.098 l -56.465,0 c -0.015,-0.578 -0.011,-1.156 -0.023,-1.734 l 56.375,0 c 0.031,0.547 0.078,1.093 0.113,1.636" /><path
               id="path48"
               style="fill:#2c3892;fill-opacity:1;fill-rule:nonzero;stroke:none"
               d="m 572.047,669.016 0.801,0 c 7.554,70.722 67.558,125.98 140.257,125.98 2.79,0 5.559,-0.101 8.305,-0.269 l 0,2.05 c -0.547,0.067 -1.086,0.157 -1.637,0.215 l 0.004,54.278 c -2.211,0.082 -4.429,0.152 -6.672,0.152 -103.05,0 -187.859,-79.328 -196.703,-180.113 l 55.754,0 c -0.047,-0.762 -0.074,-1.528 -0.109,-2.293" /><path
               id="path50"
               style="fill:#ed127c;fill-opacity:1;fill-rule:nonzero;stroke:none"
               d="m 572.047,669.016 c 0.035,0.765 0.062,1.531 0.109,2.293 l -55.754,0 c -0.066,-0.77 -0.168,-1.524 -0.226,-2.293 l 55.871,0" /><path
               id="path52"
               style="fill:#51ade5;fill-opacity:1;fill-rule:nonzero;stroke:none"
               d="m 710.359,1189.99 c -9.324,0 -18.605,-0.23 -27.847,-0.71 l -61.004,-6.6 c -22.332,-3.7 -44.352,-8.85 -66.02,-15.4 -18.187,-5.48 -36.148,-11.97 -53.8,-19.42 -7.2,-3.04 -14.321,-6.24 -21.333,-9.59 -30.718,-14.57 -59.796,-31.97 -87.082,-52.04 0,-0.02 0,-0.02 -0.019,-0.02 -21.856,-16.04 -42.524,-33.8 -61.961,-53.24 -9.574,-9.57 -18.73,-19.44 -27.492,-29.61 0,-0.03 0,-0.03 -0.024,-0.03 -22.125,-25.678 -41.668,-53.213 -58.464,-82.478 l 0,-0.02 c -10.758,-18.73 -20.395,-38.172 -28.887,-58.234 -2.02,-4.785 -3.977,-9.594 -5.848,-14.422 l 0,-0.024 c -7.555,-19.336 -13.902,-39.023 -19.086,-58.98 -5.164,-19.797 -9.179,-39.859 -12.008,-60.172 -2.769,-19.793 -4.414,-39.797 -4.976,-59.984 l 0.472,0 c 0.895,3.515 4.086,6.117 7.879,6.117 l 40.121,0 c 3.797,0 6.926,-2.61 7.848,-6.117 l 0.145,0 c 0.75,25.101 3.433,49.867 8.035,74.218 4.101,21.938 9.762,43.543 16.961,64.731 3.726,11.008 7.871,21.894 12.426,32.652 5.289,12.469 11.05,24.645 17.296,36.551 l 0,0.02 c 22.438,42.605 51.075,81.46 85.5,115.886 43.313,43.316 93.618,77.466 149.563,101.566 0.957,0.42 1.934,0.83 2.914,1.25 23.891,10.09 48.367,18.19 73.363,24.23 -13.965,-30.52 -30.386,-59.61 -49.16,-87.13 -47.973,-21.16 -91.16,-50.76 -128.457,-88.056 -28.492,-28.493 -52.512,-60.461 -71.68,-95.344 0,0 -0.019,0 -0.019,-0.02 -6.973,-12.675 -13.301,-25.726 -18.985,-39.148 -5.597,-13.219 -10.488,-26.645 -14.652,-40.254 l -0.019,0 c -10.079,-32.766 -16.016,-66.609 -17.875,-101.137 0.925,3.492 4.05,6.102 7.847,6.102 l 40.149,0 c 4.402,0 8.05,-3.496 8.144,-7.899 0.02,-0.906 0.063,-1.804 0.086,-2.707 2.563,50.825 15.399,99.731 37.574,144.313 17.485,35.152 40.754,67.621 69.329,96.195 36.339,36.34 78.964,64.106 125.441,82.293 42.082,16.502 87.351,25.122 133.91,25.122 l 0,1.22 c -0.476,0.03 -0.945,0.08 -1.422,0.1 -4.289,0.26 -7.617,3.83 -7.617,8.11 l 0.004,40.06 c 0,2.92 1.547,5.46 3.851,6.89 -28.335,-0.34 -56.257,-3.41 -83.542,-9.24 8.472,15.72 16.277,31.83 23.457,48.31 3.371,7.74 6.578,15.55 9.636,23.37 15.653,1.52 31.426,2.29 47.328,2.29 2.77,0 5.536,-0.06 8.305,-0.1 l 0,6.03 c -0.476,1.03 -0.762,2.16 -0.762,3.37 l 0.004,40.06 c 0,1.22 0.282,2.36 0.758,3.4 l 0,3.56 c -2.769,0.04 -5.535,0.11 -8.305,0.11" /><path
               id="path54"
               style="fill:#231f20;fill-opacity:1;fill-rule:nonzero;stroke:none"
               d="m 295.766,660.754 0.285,0 c -0.039,1.195 -0.074,2.391 -0.106,3.59 -0.05,-1.199 -0.14,-2.391 -0.179,-3.59" /><path
               id="path56"
               style="fill:#00adef;fill-opacity:1;fill-rule:nonzero;stroke:none"
               d="m 222.98,675.133 -40.121,0 c -3.793,0 -6.984,-2.602 -7.879,-6.117 l 55.848,0 c -0.922,3.507 -4.051,6.117 -7.848,6.117" /><path
               id="path58"
               style="fill:#00adef;fill-opacity:1;fill-rule:nonzero;stroke:none"
               d="m 296.051,660.754 56.16,0 c 0.051,1.262 0.137,2.516 0.199,3.773 -0.023,0.903 -0.066,1.801 -0.086,2.707 -0.094,4.403 -3.742,7.899 -8.144,7.899 l -40.149,0 c -3.797,0 -6.922,-2.61 -7.847,-6.102 -0.082,-1.562 -0.168,-3.125 -0.239,-4.687 0.032,-1.199 0.067,-2.395 0.106,-3.59" /><path
               id="path60"
               style="fill:#2c3892;fill-opacity:1;fill-rule:nonzero;stroke:none"
               d="m 718.664,908.504 c 61.738,-3.859 119.25,-29.723 163.387,-73.863 47.949,-47.953 74.359,-111.727 74.355,-179.555 0,-2.738 -0.062,-5.473 -0.144,-8.207 0.035,0.543 0.082,1.09 0.113,1.637 l 56.375,-0.004 c 0.05,2.187 0.1,4.379 0.1,6.57 0,82.898 -32.291,160.844 -90.897,219.457 -55.047,55.055 -127.121,86.879 -204.359,90.547 l 0,-0.906 c 0.355,-0.008 0.715,-0.004 1.07,-0.016 l 0,-55.66" /><path
               id="path62"
               style="fill:#231f20;fill-opacity:1;fill-rule:nonzero;stroke:none"
               d="m 718.664,908.504 0,55.66 c -0.355,0.012 -0.715,0.008 -1.07,0.016 l -0.004,-55.602 c 0.359,-0.019 0.715,-0.051 1.074,-0.074" /><path
               id="path64"
               style="fill:#2c3892;fill-opacity:1;fill-rule:nonzero;stroke:none"
               d="m 721.41,796.777 c 69.934,-8.304 124.344,-67.918 124.336,-140.05 0,-2.758 -0.101,-5.493 -0.266,-8.207 l 55.981,-0.004 c -0.004,-0.032 -0.008,-0.067 -0.012,-0.098 l 0.535,0 c 0.125,2.746 0.188,5.516 0.188,8.305 0.008,103.836 -80.516,189.195 -182.395,196.941 l 0,-2.394 c 0.543,-0.02 1.094,-0.012 1.633,-0.036 l 0,-54.457" /><path
               id="path66"
               style="fill:#231f20;fill-opacity:1;fill-rule:nonzero;stroke:none"
               d="m 721.41,796.777 0,54.457 c -0.539,0.024 -1.09,0.016 -1.633,0.036 l -0.004,-54.278 c 0.551,-0.058 1.09,-0.148 1.637,-0.215" /><path
               id="path68"
               style="fill:#00adef;fill-opacity:1;fill-rule:nonzero;stroke:none"
               d="m 725.746,1134.74 c 22.442,-1.03 44.609,-3.6 66.445,-7.71 21.957,-4.09 43.582,-9.74 64.789,-16.92 11.02,-3.72 21.915,-7.85 32.684,-12.39 12.481,-5.27 24.664,-11.02 36.582,-17.25 l 0.02,0 c 42.644,-22.37 81.534,-50.93 115.994,-85.255 43.35,-43.192 77.53,-93.352 101.65,-149.137 0.42,-0.953 0.84,-1.93 1.25,-2.902 7.78,-18.344 14.37,-37.031 19.75,-56.035 1.93,-6.825 -5.11,-12.68 -11.49,-9.539 -24.75,12.183 -48.52,26.015 -71.21,41.441 l 0,0 c -21.19,47.836 -50.81,90.898 -88.14,128.09 -28.519,28.41 -60.515,52.359 -95.429,71.477 0,0 0,0.02 -0.024,0.02 -12.683,6.95 -25.746,13.26 -39.183,18.93 -13.231,5.58 -26.664,10.46 -40.289,14.61 l 0,0.02 c -32.68,10.02 -66.422,15.99 -100.852,17.86 -1.766,0.1 -3.426,-0.36 -4.813,-1.22 1.727,0.02 3.454,0.07 5.184,0.07 l 0,-55.23 c 48.984,-3.15 96.102,-15.83 139.184,-37.186 35.183,-17.433 67.679,-40.636 96.285,-69.132 36.371,-36.235 64.157,-78.739 82.367,-125.079 15.04,-38.214 23.51,-79.066 24.91,-121.121 l 56.08,-0.004 c -0.09,-2.679 -0.27,-5.343 -0.41,-8.015 0.62,1.183 1,2.519 0.97,3.953 -0.41,21.551 -2.44,42.852 -6.07,63.812 -1.14,6.582 5.76,11.582 11.75,8.571 10.97,-5.52 22.12,-10.727 33.45,-15.645 6.21,-2.695 12.45,-5.281 18.72,-7.773 2.86,-1.137 4.86,-3.758 5.13,-6.817 1.22,-13.968 1.83,-28.043 1.83,-42.211 0,-0.027 0,-0.054 0,-0.082 0,-1.484 0.42,-2.855 1.1,-4.058 l 54.3,-0.004 c 0.66,1.164 1.07,2.484 1.08,3.918 0,0.074 0,0.148 0,0.223 0,9.21 -0.23,18.382 -0.7,27.511 -0.01,0.172 -0.02,0.34 -0.04,0.508 l -6.54,60.313 c -0.02,0.171 -0.04,0.347 -0.07,0.519 -3.71,22.18 -8.84,44.051 -15.37,65.57 -5.48,18.137 -11.98,36.047 -19.44,53.645 -3.04,7.18 -6.25,14.277 -9.6,21.273 -14.58,30.629 -31.99,59.621 -52.08,86.832 -0.02,0 -0.02,0 -0.02,0.02 -16.06,21.789 -33.83,42.399 -53.28,61.779 -9.59,9.55 -19.46,18.68 -29.65,27.42 -0.02,0 -0.02,0 -0.02,0.02 -25.7,22.06 -53.264,41.55 -82.553,58.3 l -0.024,0 c -18.746,10.73 -38.203,20.34 -58.285,28.81 -4.793,2.01 -9.605,3.96 -14.438,5.83 l -0.019,0 c -19.356,7.53 -39.063,13.86 -59.039,19.03 -19.813,5.15 -39.895,9.16 -60.227,11.98 -17.047,2.37 -34.25,3.92 -51.593,4.66 -3.395,0.15 -6.356,-1.83 -7.688,-4.72 l 0,-46.83 c 1.246,-2.69 3.914,-4.6 7.082,-4.75" /><path
               id="path70"
               style="fill:#00adef;fill-opacity:1;fill-rule:nonzero;stroke:none"
               d="m 717.902,1142.86 c 0,-1.21 0.286,-2.34 0.762,-3.37 l 0,46.83 c -0.476,-1.04 -0.758,-2.18 -0.758,-3.4 l -0.004,-40.06" /><path
               id="path72"
               style="fill:#00adef;fill-opacity:1;fill-rule:nonzero;stroke:none"
               d="m 713.48,1068.83 c -2.304,-1.43 -3.851,-3.97 -3.851,-6.89 l -0.004,-40.06 c 0,-4.28 3.328,-7.85 7.617,-8.11 0.477,-0.02 0.946,-0.07 1.422,-0.1 l 0,55.23 c -1.73,0 -3.457,-0.05 -5.184,-0.07" /><path
               id="path74"
               style="fill:#2c3892;fill-opacity:1;fill-rule:nonzero;stroke:none"
               d="m 956.258,646.781 c 0.004,0.032 0.004,0.063 0.004,0.098 -3.985,-61.527 -29.817,-118.824 -73.824,-162.824 -47.958,-47.95 -111.727,-74.36 -179.559,-74.356 -2.766,0 -5.535,0.063 -8.305,0.149 l 0,-0.809 c 0.367,-0.019 0.735,-0.055 1.102,-0.074 l 0,-55.602 c 2.402,-0.062 4.801,-0.109 7.203,-0.109 82.894,-0.004 160.844,32.293 219.457,90.898 55.051,55.047 86.874,127.121 90.544,204.36 l -0.13,0 c -0.01,-0.578 -0.01,-1.157 -0.03,-1.735 l -56.462,0.004" /><path
               id="path76"
               style="fill:#231f20;fill-opacity:1;fill-rule:nonzero;stroke:none"
               d="m 694.574,409.039 -0.004,-55.66 c 0.371,-0.012 0.739,-0.008 1.106,-0.016 l 0,55.602 c -0.367,0.019 -0.735,0.055 -1.102,0.074" /><path
               id="path78"
               style="fill:#231f20;fill-opacity:1;fill-rule:nonzero;stroke:none"
               d="m 956.262,646.879 c 0,-0.035 0,-0.066 -0.004,-0.098 l 56.462,-0.004 c 0.02,0.578 0.02,1.157 0.03,1.735 l -56.375,0.004 c -0.031,-0.547 -0.078,-1.094 -0.113,-1.637" /><path
               id="path80"
               style="fill:#2c3892;fill-opacity:1;fill-rule:nonzero;stroke:none"
               d="m 845.48,648.52 -0.695,0 C 837.227,577.801 777.223,522.543 704.52,522.547 c -2.231,0 -4.446,0.082 -6.653,0.191 l 0,-56.465 c 2.207,-0.078 4.418,-0.148 6.653,-0.148 103.8,-0.008 189.132,80.461 196.929,182.293 l -55.972,0.004 c 0.003,0.031 0.003,0.066 0.003,0.098" /><path
               id="path82"
               style="fill:#231f20;fill-opacity:1;fill-rule:nonzero;stroke:none"
               d="m 696.215,522.82 0,-56.507 c 0.547,-0.028 1.105,-0.02 1.652,-0.04 l 0,56.465 c -0.551,0.032 -1.101,0.047 -1.652,0.082" /><path
               id="path84"
               style="fill:#231f20;fill-opacity:1;fill-rule:nonzero;stroke:none"
               d="m 845.48,648.52 c 0,-0.032 0,-0.067 -0.003,-0.098 l 55.972,-0.004 c 0.004,0.031 0.008,0.066 0.012,0.098 l -55.981,0.004" /><path
               id="path86"
               style="fill:#00adef;fill-opacity:1;fill-rule:nonzero;stroke:none"
               d="m 1231.18,648.738 -40.16,0.004 c -3.05,0 -5.65,1.68 -7.06,4.141 l -1.68,0 c -0.75,-25.102 -3.44,-49.867 -8.04,-74.219 -4.1,-21.937 -9.76,-43.539 -16.97,-64.726 -3.72,-11.012 -7.86,-21.895 -12.42,-32.657 -5.29,-12.465 -11.06,-24.64 -17.3,-36.547 l 0,-0.019 c -22.44,-42.602 -51.08,-81.461 -85.51,-115.883 -43.31,-43.309 -93.618,-77.461 -149.563,-101.559 -0.957,-0.414 -1.938,-0.832 -2.914,-1.246 -23.895,-10.093 -48.372,-18.187 -73.368,-24.222 13.965,30.508 30.391,59.605 49.164,87.121 47.977,21.164 91.164,50.754 128.461,88.051 28.5,28.492 52.52,60.457 71.69,95.339 0,0 0.02,0 0.02,0.02 6.97,12.676 13.3,25.727 18.98,39.148 5.6,13.215 10.49,26.641 14.66,40.25 l 0.02,0 c 10.11,32.848 16.05,66.782 17.89,101.399 -1.36,-2.59 -4.04,-4.387 -7.19,-4.387 l -40.19,0.004 c -4.4,0 -8.06,3.484 -8.15,7.875 -0.03,1.512 -0.09,3.02 -0.14,4.527 l -0.37,0 c -2.1,-52.179 -15.05,-102.398 -37.78,-148.082 -17.49,-35.152 -40.756,-67.621 -69.334,-96.191 -36.34,-36.34 -78.969,-64.102 -125.446,-82.289 -42.082,-16.504 -87.351,-25.117 -133.91,-25.113 l 0,-0.286 c 0.586,-0.039 1.172,-0.093 1.758,-0.128 4.285,-0.262 7.61,-3.833 7.61,-8.125 l 0,-40.18 c 0,-3.582 -2.305,-6.567 -5.477,-7.676 28.777,0.258 57.133,3.336 84.832,9.246 -8.473,-15.711 -16.277,-31.82 -23.457,-48.305 -3.375,-7.742 -6.578,-15.546 -9.641,-23.371 -15.652,-1.519 -31.425,-2.289 -47.328,-2.289 -2.769,0 -5.535,0.067 -8.304,0.106 l 0,-4.824 c 0.691,-1.196 1.113,-2.567 1.113,-4.043 l 0,-40.18 c 0,-1.484 -0.426,-2.852 -1.117,-4.051 l 0,-3.324 c 2.769,-0.043 5.539,-0.106 8.304,-0.106 9.325,0 18.61,0.227 27.848,0.707 l 61.004,6.594 c 22.332,3.703 44.351,8.844 66.019,15.399 18.192,5.472 36.153,11.964 53.801,19.414 7.203,3.039 14.32,6.242 21.336,9.593 30.723,14.567 59.797,31.965 87.089,52.028 0,0.019 0,0.019 0.02,0.019 21.85,16.047 42.52,33.797 61.96,53.239 9.57,9.57 18.73,19.437 27.49,29.613 0,0.019 0,0.019 0.03,0.019 22.12,25.684 41.67,53.219 58.46,82.481 l 0,0.019 c 10.77,18.735 20.4,38.172 28.9,58.235 2.02,4.785 3.97,9.594 5.85,14.422 l 0,0.019 c 7.55,19.336 13.9,39.028 19.08,58.985 5.17,19.793 9.18,39.855 12.02,60.171 2.77,19.793 4.41,39.793 4.97,59.981 l -0.48,0 c -1.4,-2.461 -4.04,-4.141 -7.08,-4.141" /><path
               id="path88"
               style="fill:#00adef;fill-opacity:1;fill-rule:nonzero;stroke:none"
               d="m 695.676,179.602 c 0,1.476 -0.422,2.847 -1.113,4.043 l -0.004,-48.274 c 0.691,1.199 1.117,2.567 1.117,4.051 l 0,40.18" /><path
               id="path90"
               style="fill:#00adef;fill-opacity:1;fill-rule:nonzero;stroke:none"
               d="m 698.461,253.082 c 3.172,1.109 5.477,4.094 5.477,7.676 l 0,40.18 c 0,4.292 -3.325,7.863 -7.61,8.125 -0.586,0.035 -1.172,0.089 -1.758,0.128 l -0.004,-56.16 c 1.301,0 2.594,0.039 3.895,0.051" /><path
               id="path92"
               style="fill:#00adef;fill-opacity:1;fill-rule:nonzero;stroke:none"
               d="m 1191.02,648.742 40.16,-0.004 c 3.04,0 5.68,1.68 7.08,4.141 l -54.3,0.004 c 1.41,-2.461 4.01,-4.141 7.06,-4.141" /><path
               id="path94"
               style="fill:#00adef;fill-opacity:1;fill-rule:nonzero;stroke:none"
               d="m 1069.7,648.75 40.19,-0.004 c 3.15,0 5.83,1.797 7.19,4.387 0.14,2.672 0.32,5.336 0.41,8.015 l -56.08,0.004 c 0.05,-1.507 0.11,-3.015 0.14,-4.527 0.09,-4.391 3.75,-7.875 8.15,-7.875" /><path
               id="path96"
               style="fill:#ffffff;fill-opacity:1;fill-rule:nonzero;stroke:none"
               d="M 0.00390625,1230.59 C 0,1230.58 0,1230.58 0,1230.58 l 0,-53.67 c 0.00390625,-0.03 0.0078125,-0.06 0.0117188,-0.08 -0.0039063,17.91 -0.0039063,35.84 -0.00781255,53.76" /><path
               id="path98"
               style="fill:#ffffff;fill-opacity:1;fill-rule:nonzero;stroke:none"
               d="M 0,1174.11 0,58.2539 C 0.0703125,428.871 0.0742188,802.086 0.0117188,1174.34 0.0078125,1174.27 0.00390625,1174.19 0,1174.11" /><path
               id="path100"
               style="fill:#ffffff;fill-opacity:1;fill-rule:nonzero;stroke:none"
               d="m 0,1273.27 c 0.078125,18.32 0.078125,39.13 0,57.71 l 0,-57.71" /><path
               id="path102"
               style="fill:#2c3892;fill-opacity:1;fill-rule:nonzero;stroke:none"
               d="m 692.93,56.5156 c -20.934,0.6016 -41.676,2.2617 -62.223,5.0078 -19.543,2.6211 -38.879,6.1993 -58.004,10.7579 -18.461,4.3906 -36.715,9.6992 -54.738,15.8828 -12.844,4.4297 -25.582,9.3007 -38.172,14.6289 -8.473,3.582 -16.859,7.348 -25.121,11.301 -19.442,9.304 -38.277,19.629 -56.488,30.929 l -0.02,0 c -38.504,23.915 -74.199,52.243 -106.707,84.75 -46.102,46.102 -83.793,98.59 -112.391,156.43 -5.164,10.469 -10.031,21.106 -14.613,31.906 -3.848,9.118 -7.469,18.317 -10.863,27.579 l 0,0.019 c -7.848,21.481 -14.402,43.332 -19.668,65.5 -4.891,20.5 -8.656,41.273 -11.301,62.273 -2.457,19.418 -3.953,39.043 -4.476,58.817 -0.145,5.453 -0.227,10.926 -0.227,16.422 0,2.789 0.062,5.554 0.105,8.324 l -0.511,0 c -0.004,-0.277 -0.024,-0.551 -0.032,-0.828 l -55.8941,0 c -0.039,-2.492 -0.0937,-4.985 -0.0937,-7.496 0,-2.414 0.0234,-4.828 0.043,-7.223 -4.2305,0.496 -8.4688,0.949 -12.711,1.359 l 0,-56.726 c 5.2813,-0.566 10.5547,-1.184 15.8125,-1.891 l 0,0 c 1.9766,-20.168 4.8906,-40.168 8.7422,-59.961 -8.1406,1.27 -16.332,2.293 -24.5547,3.188 l 0,-56.758 c 13.1914,-1.609 26.2735,-3.746 39.2266,-6.434 5.1601,-17.421 11.0742,-34.632 17.7302,-51.636 -18.6794,4.836 -37.6912,8.343 -56.9568,10.574 l 0,-56.836 c 30.8594,-4.129 60.7848,-12.113 89.1988,-23.711 l 0,0 c 30.012,-56.094 68.036,-107.293 113.536,-152.789 30.613,-30.617 63.812,-57.84 99.339,-81.504 10.047,-33.6249 15.25,-68.8593 15.29,-104.88662 l 56.421,0 c -0.019,22.30472 -1.73,44.35942 -5.171,66.07032 13.195,-6.6992 26.66,-12.9258 40.375,-18.7305 3,-1.2695 5.996,-2.5195 9.011,-3.7265 l 0,0 c 1.571,-14.4258 2.481,-28.9727 2.735,-43.61332 l 56.421,0 c -0.121,7.74222 -0.386,15.46482 -0.835,23.15622 17.171,-5.1406 34.527,-9.5117 52.05,-13.1758 0.086,-3.3242 0.133,-6.6523 0.164,-9.98042 l 56.43,0 c -0.004,0.26562 0,0.53515 0,0.80078 2.531,-0.29688 5.074,-0.53516 7.613,-0.80078 l 51.524,0 0.004,53.03122" /><path
               id="path104"
               style="fill:#231f20;fill-opacity:1;fill-rule:nonzero;stroke:none"
               d="m 692.926,3.48438 -51.524,0 C 659.242,1.60156 677.219,0.417969 695.332,0 l 0,1.27344 c -0.801,0.01562 -1.605,0.01953 -2.406,0.03125 l 0,2.17969" /><path
               id="path106"
               style="fill:#231f20;fill-opacity:1;fill-rule:nonzero;stroke:none"
               d="m 692.926,3.48438 0,-2.17969 c 0.801,-0.01172 1.605,-0.01563 2.406,-0.03125 l 0,2.21094 -2.406,0" /><path
               id="path108"
               style="fill:#231f20;fill-opacity:1;fill-rule:nonzero;stroke:none"
               d="m 695.332,3.48438 0,52.93752 c -0.805,0.0195 -1.602,0.0703 -2.402,0.0937 l -0.004,-53.03122 2.406,0" /><path
               id="path110"
               style="fill:#2c3892;fill-opacity:1;fill-rule:nonzero;stroke:none"
               d="m 1345.71,573.457 c 2.4,20.336 3.82,40.856 4.3,61.543 l -1.32,0 c -1.18,-1.559 -3.04,-2.578 -5.14,-2.578 l -43.54,0 c -2.1,0 -3.95,1.023 -5.12,2.582 l -1.31,0 c -0.54,-21.75 -2.25,-43.289 -5.1,-64.625 -2.62,-19.543 -6.21,-38.875 -10.76,-58.004 -4.4,-18.461 -9.71,-36.715 -15.89,-54.738 -4.43,-12.84 -9.3,-25.578 -14.63,-38.168 -3.58,-8.473 -7.35,-16.86 -11.3,-25.121 -9.31,-19.442 -19.63,-38.274 -30.94,-56.485 l 0,-0.019 c -23.91,-38.504 -52.24,-74.196 -84.75,-106.703 -46.11,-46.098 -98.6,-83.789 -156.44,-112.383 -10.469,-5.16 -21.102,-10.031 -31.907,-14.61 -9.117,-3.847 -18.316,-7.4683 -27.578,-10.8628 l -0.019,0 c -21.481,-7.8438 -43.336,-14.3985 -65.5,-19.6641 -20.5,-4.8906 -41.274,-8.6563 -62.274,-11.2969 -19.418,-2.457 -39.047,-3.9531 -58.816,-4.4726 -5.453,-0.1446 -10.93,-0.2266 -16.422,-0.2266 -2.789,0 -5.559,0.0625 -8.324,0.1055 l 0,-1.2149 c 0.8,-0.0234 1.597,-0.0742 2.402,-0.0937 l 0,-52.93752 70.293,0 c 0.035,0.28515 0.066,0.57031 0.105,0.85546 20.165,1.97657 40.168,4.88672 59.961,8.73826 -0.496,-3.18747 -0.914,-6.39451 -1.351,-9.59372 l 56.996,0 c 1.254,8.13282 2.691,16.22652 4.359,24.26172 17.422,5.1602 34.633,11.0703 51.641,17.7305 -3.582,-13.8282 -6.438,-27.836 -8.594,-41.99222 l 57.172,0 c 4.504,25.57422 11.68,50.43362 21.396,74.22652 56.09,30.0121 107.29,68.0311 152.79,113.5271 30.62,30.614 57.85,63.809 81.51,99.336 34.41,10.278 70.5,15.5 107.4,15.289 1.02,0 1.85,0.813 1.85,1.813 l 0.55,52.738 c 0.02,1.02 -0.82,1.875 -1.84,1.875 -23.35,0.149 -46.43,-1.578 -69.14,-5.18 6.71,13.196 12.93,26.661 18.74,40.375 1.27,3 2.52,5.996 3.72,9.012 18.51,2.016 37.21,2.934 56.05,2.781 l 0,56.434 c -11.91,0.078 -23.79,-0.203 -35.58,-0.895 5.14,17.168 9.51,34.528 13.17,52.051 7.46,0.188 14.92,0.246 22.41,0.164 l 0,56.426 c -4.41,0.035 -8.82,0.039 -13.23,0" /><path
               id="path112"
               style="fill:#2c3892;fill-opacity:1;fill-rule:nonzero;stroke:none"
               d="m 117.512,657.043 c 0.562,21.469 2.254,42.734 5.066,63.797 2.625,19.543 6.203,38.879 10.762,58.008 4.39,18.461 9.699,36.711 15.883,54.738 4.429,12.84 9.3,25.578 14.629,38.168 3.582,8.473 7.347,16.859 11.3,25.125 9.305,19.437 19.629,38.273 30.93,56.484 l 0,0.02 c 23.914,38.504 52.238,74.197 84.75,106.707 46.102,46.1 98.59,83.8 156.43,112.39 10.468,5.16 21.105,10.03 31.906,14.61 9.117,3.85 18.316,7.47 27.578,10.87 l 0.02,0 c 21.48,7.84 43.332,14.4 65.5,19.67 20.5,4.89 41.269,8.65 62.273,11.3 19.418,2.45 39.043,3.95 58.816,4.47 5.454,0.15 10.926,0.23 16.422,0.23 2.789,0 5.555,-0.06 8.325,-0.1 l 0,1.25 c -1.168,1.16 -1.895,2.76 -1.895,4.53 l 0.004,43.55 c 0,1.78 0.727,3.38 1.891,4.55 l 0,2.1 -72.489,0 c -0.109,-0.87 -0.199,-1.74 -0.316,-2.6 -20.168,-1.98 -40.168,-4.89 -59.961,-8.74 0.59,3.77 1.09,7.55 1.598,11.34 l -56.973,0 c -1.309,-8.73 -2.844,-17.4 -4.629,-26.01 -17.422,-5.16 -34.633,-11.08 -51.637,-17.74 3.727,14.4 6.672,28.99 8.856,43.75 l -57.141,0 c -4.48,-26.2 -11.754,-51.65 -21.687,-75.98 -56.09,-30.02 -107.293,-68.04 -152.789,-113.54 -30.618,-30.62 -57.84,-63.81 -81.504,-99.34 -34.403,-10.283 -70.4925,-15.505 -107.3948,-15.298 -1.0196,0 -1.8516,-0.809 -1.8516,-1.809 l -0.543,-52.742 c -0.0195,-1.02 0.8125,-1.871 1.8321,-1.871 23.3515,-0.149 46.4333,1.582 69.1403,5.179 -6.703,-13.191 -12.925,-26.66 -18.73,-40.375 -1.27,-2.996 -2.52,-5.996 -3.727,-9.011 -18.9372,-2.063 -38.0857,-2.996 -57.3787,-2.789 -0.6523,0.004 -1.3046,0.027 -1.9531,0.039 l 0,-56.438 c 0.4649,-0.008 0.9219,-0.023 1.3906,-0.027 12.5508,-0.125 25.0586,0.168 37.4844,0.894 -5.1406,-17.168 -9.5117,-34.527 -13.1758,-52.05 -7.4921,-0.188 -14.9843,-0.25 -22.5195,-0.168 -1.0625,0.011 -2.1211,0.039 -3.1797,0.062 l 0,-56.437 c 0.8633,-0.016 1.7305,-0.039 2.5977,-0.047 4.6406,-0.043 9.2812,-0.043 13.9219,0 -2.3946,-20.336 -3.8086,-40.86 -4.2852,-61.547 l 0.5273,0 c 0.0039,0.277 0.0079,0.555 0.0118,0.828 l 55.9143,0" /><path
               id="path114"
               style="fill:#2c3892;fill-opacity:1;fill-rule:nonzero;stroke:none"
               d="m 770.582,1286.01 c -15.801,1.68 -31.715,2.78 -47.727,3.3 -1.855,0.07 -3.542,-0.68 -4.753,-1.9 l 0,-52.63 c 1.117,-1.12 2.64,-1.83 4.339,-1.89 19.633,-0.69 39.098,-2.34 58.391,-4.92 19.543,-2.62 38.879,-6.2 58.004,-10.76 18.461,-4.39 36.715,-9.7 54.738,-15.88 12.84,-4.44 25.578,-9.31 38.168,-14.64 8.473,-3.58 16.86,-7.34 25.121,-11.3 19.438,-9.3 38.274,-19.63 56.487,-30.93 l 0.02,0 c 38.5,-23.92 74.19,-52.25 106.7,-84.76 46.1,-46.1 83.79,-98.595 112.38,-156.434 5.16,-10.469 10.03,-21.106 14.61,-31.907 3.85,-9.117 7.47,-18.316 10.86,-27.578 l 0,-0.019 c 7.85,-21.481 14.41,-43.336 19.67,-65.5 4.89,-20.504 8.66,-41.274 11.3,-62.274 2.45,-19.418 3.95,-39.047 4.47,-58.816 0.14,-5.453 0.23,-10.93 0.23,-16.426 0,-0.609 -0.01,-1.219 -0.01,-1.824 -0.01,-1.477 0.49,-2.824 1.31,-3.918 l 53.8,-0.004 c 0.8,1.063 1.3,2.371 1.31,3.805 0.01,0.644 0.01,1.293 0.01,1.941 0,3.852 3.34,6.82 7.17,6.414 0.59,-0.062 1.18,-0.109 1.76,-0.172 l 0,56.774 c -2.33,0.265 -4.68,0.511 -7.01,0.804 -2.08,2.145 -3.49,3.59 -5.58,5.735 -1.63,15.465 -3.82,30.824 -6.57,46.066 -0.77,4.328 2.87,8.113 7.23,7.512 3.97,-0.551 7.95,-1.055 11.93,-1.516 l 0,56.875 c -10.64,1.383 -21.21,3.098 -31.69,5.184 -2.33,0.465 -4.21,2.191 -4.89,4.469 -3.73,12.297 -7.83,24.492 -12.3,36.582 -1.78,4.8 2.49,9.621 7.48,8.48 13.65,-3.109 27.46,-5.531 41.4,-7.269 l 0,56.929 c -28.75,4.153 -56.67,11.653 -83.28,22.317 -1.12,1.008 -2.14,1.925 -3.27,2.929 -29.83,55.291 -67.48,105.801 -112.42,150.741 -30.05,30.06 -62.6,56.85 -97.39,80.21 -1.25,0.84 -2.18,2.09 -2.6,3.54 -9.85,33.73 -14.84,69.05 -14.63,105.15 0,0.38 -0.14,0.71 -0.33,1.01 l -56.008,0 c -0.035,-0.15 -0.09,-0.29 -0.09,-0.44 -0.121,-19.25 1.031,-38.31 3.453,-57.13 0.652,-5.07 -4.551,-8.85 -9.156,-6.62 -9.696,4.68 -19.528,9.12 -29.492,13.34 -3,1.27 -5.997,2.52 -9.012,3.73 l 0,0 c -1.695,15.57 -2.586,31.29 -2.746,47.12 l -56.438,0 c 0.055,-5.91 0.172,-11.81 0.414,-17.69 0.184,-4.36 -3.953,-7.65 -8.148,-6.46 -12.727,3.61 -25.551,6.8 -38.469,9.61 -2.918,0.63 -5.043,3.17 -5.094,6.15 -0.046,2.8 -0.074,5.59 -0.086,8.39 l -57.128,0 c -1.168,-2.3 -3.668,-3.79 -6.438,-3.5" /><path
               id="path116"
               style="fill:#231f20;fill-opacity:1;fill-rule:nonzero;stroke:none"
               d="m 716.211,1282.86 -0.004,-43.55 c 0,-1.77 0.727,-3.37 1.895,-4.53 l 0,52.63 c -1.164,-1.17 -1.891,-2.77 -1.891,-4.55" /><path
               id="path118"
               style="fill:#2c3892;fill-opacity:1;fill-rule:nonzero;stroke:none"
               d="m 52.1289,573.457 c 2.3945,20.336 3.8086,40.856 4.2891,61.543 l -1.3164,0 c -1.1797,-1.559 -3.0352,-2.578 -5.1368,-2.578 l -43.53902,0 c -2.10547,0 -3.94922,1.023 -5.12109,2.582 l -1.30859625,0 C -0.546875,613.254 -2.25391,591.715 -5.10938,570.379 -7.73047,550.836 -11.3125,531.504 -15.8711,512.375 c -4.3945,-18.461 -9.7031,-36.715 -15.8828,-54.738 -4.4336,-12.84 -9.3047,-25.578 -14.6367,-38.168 -3.5782,-8.473 -7.3477,-16.86 -11.3008,-25.121 -9.3047,-19.442 -19.6289,-38.274 -30.9297,-56.485 l 0,-0.019 c -23.9179,-38.504 -52.2459,-74.196 -84.7579,-106.703 -46.105,-46.098 -98.598,-83.789 -156.437,-112.383 -10.469,-5.16 -21.106,-10.031 -31.907,-14.61 -9.117,-3.847 -18.316,-7.4683 -27.578,-10.8628 l -0.019,0 c -21.481,-7.8438 -43.336,-14.3985 -65.5,-19.6641 -20.504,-4.8906 -41.274,-8.6563 -62.274,-11.2969 -19.418,-2.457 -39.047,-3.9531 -58.816,-4.4726 -5.453,-0.1446 -10.93,-0.2266 -16.422,-0.2266 -2.789,0 -5.559,0.0625 -8.328,0.1055 l 0,-1.2149 c 0.805,-0.0234 1.601,-0.0742 2.406,-0.0937 l 0,-52.93752 70.289,0 c 0.039,0.28515 0.067,0.57031 0.106,0.85546 20.168,1.97657 40.171,4.88672 59.964,8.73826 -0.5,-3.18747 -0.914,-6.39451 -1.351,-9.59372 l 56.996,0 c 1.254,8.13282 2.691,16.22652 4.359,24.26172 17.422,5.1602 34.633,11.0703 51.637,17.7305 -3.578,-13.8282 -6.437,-27.836 -8.59,-41.99222 l 57.168,0 c 4.508,25.57422 11.684,50.43362 21.399,74.22652 56.093,30.0121 107.293,68.0311 152.793,113.5271 30.617,30.614 57.8434,63.809 81.5113,99.336 34.4024,10.278 70.4922,15.5 107.3946,15.289 1.0195,0 1.8515,0.813 1.8515,1.813 l 0.5469,52.738 c 0.0195,1.02 -0.8125,1.875 -1.832,1.875 -23.3516,0.149 -46.43361,-1.578 -69.1406,-5.18 6.69917,13.196 12.925737,26.661 18.73043,40.375 1.27343,3 2.51953,5.996 3.72656,9.012 18.50391,2.016 37.21091,2.934 56.05471,2.781 l 0,56.434 c -11.9141,0.078 -23.793,-0.203 -35.5899,-0.895 5.1407,17.168 9.5118,34.528 13.1758,52.051 7.457,0.188 14.9141,0.246 22.4141,0.164 l 0,56.426 c -4.4102,0.035 -8.8203,0.039 -13.2305,0" /><path
               id="path120"
               style="fill:#2c3892;fill-opacity:1;fill-rule:nonzero;stroke:none"
               d="m -523.004,1286.01 c -15.801,1.68 -31.715,2.78 -47.73,3.3 -1.852,0.07 -3.539,-0.68 -4.75,-1.9 l 0,-52.63 c 1.117,-1.12 2.64,-1.83 4.339,-1.89 19.633,-0.69 39.094,-2.34 58.387,-4.92 19.543,-2.62 38.879,-6.2 58.008,-10.76 18.461,-4.39 36.711,-9.7 54.734,-15.88 12.844,-4.44 25.582,-9.31 38.172,-14.64 8.473,-3.58 16.86,-7.34 25.121,-11.3 19.438,-9.3 38.274,-19.63 56.485,-30.93 l 0.019,0 c 38.504,-23.92 74.196,-52.25 106.703,-84.76 46.098,-46.1 83.7894,-98.595 112.3832,-156.434 5.1601,-10.469 10.0312,-21.106 14.6094,-31.907 3.8476,-9.117 7.4687,-18.316 10.8632,-27.578 l 0,-0.019 c 7.8438,-21.481 14.3985,-43.336 19.6641,-65.5 4.8867,-20.504 8.65626,-41.274 11.29688,-62.274 2.45313,-19.418 3.953126,-39.047 4.472657,-58.816 C -0.0820313,651.719 0,646.242 0,640.746 c 0,-0.609 -0.00390625,-1.219 -0.0078125,-1.824 -0.0117188,-1.477 0.4882815,-2.824 1.3125025,-3.918 L 55.1016,635 c 0.8047,1.063 1.3007,2.371 1.3125,3.805 0.0078,0.644 0.0078,1.293 0.0078,1.941 0,3.852 3.3437,6.82 7.1719,6.414 0.5898,-0.062 1.1757,-0.109 1.7656,-0.172 l 0,56.774 c -2.3399,0.265 -4.6836,0.511 -7.0156,0.804 -2.0821,2.145 -3.4922,3.59 -5.5782,5.735 -1.6367,15.465 -3.8281,30.824 -6.5703,46.066 -0.7773,4.328 2.8711,8.113 7.2266,7.512 3.9687,-0.551 7.9492,-1.055 11.9375,-1.516 l 0,56.875 c -10.6446,1.383 -21.2149,3.098 -31.6992,5.184 -2.3321,0.465 -4.2032,2.191 -4.8907,4.469 -3.7265,12.297 -7.8242,24.492 -12.2968,36.582 -1.7774,4.8 2.4882,9.621 7.4804,8.48 13.6446,-3.109 27.4571,-5.531 41.4063,-7.269 l 0,56.929 c -28.7578,4.153 -56.6719,11.653 -83.2852,22.317 -1.1211,1.008 -2.1445,1.925 -3.2656,2.929 -29.8359,55.291 -67.4844,105.801 -112.4216,150.741 -30.059,30.06 -62.602,56.85 -97.399,80.21 -1.25,0.84 -2.176,2.09 -2.597,3.54 -9.844,33.73 -14.836,69.05 -14.633,105.15 0,0.38 -0.137,0.71 -0.328,1.01 l -56.004,0 c -0.035,-0.15 -0.09,-0.29 -0.09,-0.44 -0.121,-19.25 1.027,-38.31 3.453,-57.13 0.652,-5.07 -4.551,-8.85 -9.156,-6.62 -9.696,4.68 -19.528,9.12 -29.496,13.34 -2.996,1.27 -5.992,2.52 -9.012,3.73 l 0,0 c -1.691,15.57 -2.582,31.29 -2.742,47.12 l -56.438,0 c 0.055,-5.91 0.168,-11.81 0.414,-17.69 0.184,-4.36 -3.957,-7.65 -8.152,-6.46 -12.723,3.61 -25.547,6.8 -38.465,9.61 -2.918,0.63 -5.043,3.17 -5.094,6.15 -0.046,2.8 -0.074,5.59 -0.086,8.39 l -57.128,0 c -1.168,-2.3 -3.672,-3.79 -6.438,-3.5" /></g></g></g></pattern></defs><g
     transform="matrix(1.3333333,0,0,-1.3333333,0,1122.6667)"
     id="g10"><g
       transform="scale(0.1)"
       id="g12"><path
         id="path14"
         style="fill:#7b7979;fill-opacity:1;fill-rule:nonzero;stroke:none"
         d="m 1236.4,5720.72 h -6.61 v 3.3 h 6.61 v -3.3" /><path
         id="path16"
         style="fill:#7b7979;fill-opacity:1;fill-rule:nonzero;stroke:none"
         d="M 7266,-1779.3 H -1302.87 V 10155.9 H 7266 V -1779.3" /><path
         id="path130"
         style="fill:url(#pattern128);fill-opacity:1;fill-rule:nonzero;stroke:none"
         d="M 8128.71,-2044.1 H -2173.8 V 10380.5 H 8128.71 V -2044.1" /></g></g></svg>